Genre:Action | Adventure | Thriller
Language:English
IMDb:http://www.imdb.com/title/tt0429493/
Subtitles: ROMANA
Encoder: Tony2
...............................................
General
Complete name : The.A.Team.2010.TS.V2.MP4.AAC.FEEEL-FREE.mp4
Format : MPEG-4
Format profile : Base Media
Codec ID : isom
File size : 1.00 GiB
Duration : 1h 47mn
Overall bit rate : 1 332 Kbps
................................................
Video
ID : 1
Format : MPEG-4 Visual
Format profile : Simple@L1
Format settings, BVOP : No
Format settings, QPel : No
Format settings, GMC : No warppoints
Format settings, Matrix : Default (H.263)
Codec ID : 20
Duration : 1h 47mn
Bit rate mode : Variable
Bit rate : 1 200 Kbps
Width : 704 pixels
Height : 304 pixels
Display aspect ratio : 2.35:1
Frame rate mode : Constant
Frame rate : 25.000 fps
Resolution : 24 bits
Colorimetry : 4:2:0
Scan type : Progressive
Bits/(Pixel*Frame) : 0.224
Stream size : 924 MiB (90%)
Writing library : Lavc51.40.4
..............................................
Audio
ID : 2
Format : AAC
Format/Info : Advanced Audio Codec
Format version : Version 4
Format profile : LC
Format settings, SBR : No
Codec ID : 40
Duration : 1h 47mn
Bit rate mode : Variable
Bit rate : 128 Kbps
Channel(s) : 2 channels
Channel positions : L R
Sampling rate : 48.0 KHz
Resolution : 16 bits
Stream size : 98.5 MiB (10%)
................................................
Plot:
A group of Iraq War veterans looks to clear their name with the U.S. military, who suspect the four men of committing a crime for which they were framed